<svg xmlns="http://www.w3.org/2000/svg" xmlns:xlink="http://www.w3.org/1999/xlink" width="242" zoomAndPan="magnify" viewBox="0 0 181.5 36.750001" height="49" preserveAspectRatio="xMidYMid meet" version="1.0"><defs><g/><clipPath id="92ef8293a3"><path d="M 0.363281 0 L 180.636719 0 L 180.636719 36.5 L 0.363281 36.5 Z M 0.363281 0 " clip-rule="nonzero"/></clipPath></defs><g clip-path="url(#92ef8293a3)"><path fill="#ffffff" d="M 0.363281 0 L 180.636719 0 L 180.636719 36.5 L 0.363281 36.5 Z M 0.363281 0 " fill-opacity="1" fill-rule="nonzero"/></g><g fill="#0b0b1b" fill-opacity="1"><g transform="translate(8.050385, 19.993983)"><g><path d="M 4.25 -11.203125 L 5.90625 -11.203125 C 6.976562 -11.203125 7.828125 -10.972656 8.453125 -10.515625 C 9.085938 -10.054688 9.40625 -9.367188 9.40625 -8.453125 C 9.40625 -7.109375 8.769531 -6.234375 7.5 -5.828125 C 9.007812 -5.398438 9.765625 -4.554688 9.765625 -3.296875 C 9.765625 -1.097656 8.390625 0 5.640625 0 L 0.640625 0 L 0.640625 -1.375 C 0.898438 -1.476562 1.296875 -1.613281 1.828125 -1.78125 L 1.828125 -9.328125 L 0.640625 -9.796875 L 0.640625 -11.125 Z M 5.171875 -4.953125 L 4.25 -4.953125 L 4.25 -1.859375 L 5.5625 -1.859375 C 6.113281 -1.859375 6.535156 -1.984375 6.828125 -2.234375 C 7.117188 -2.492188 7.265625 -2.847656 7.265625 -3.296875 C 7.265625 -3.859375 7.09375 -4.273438 6.75 -4.546875 C 6.414062 -4.816406 5.890625 -4.953125 5.171875 -4.953125 Z M 4.25 -9.328125 L 4.25 -6.625 L 5.171875 -6.625 C 6.347656 -6.625 6.9375 -7.117188 6.9375 -8.109375 C 6.9375 -8.503906 6.8125 -8.804688 6.5625 -9.015625 C 6.320312 -9.222656 6 -9.328125 5.59375 -9.328125 Z M 4.25 -9.328125 "/></g></g></g><g fill="#0b0b1b" fill-opacity="1"><g transform="translate(18.488851, 19.993983)"><g><path d="M 4.15625 -9.328125 L 4.15625 -1.859375 L 6.59375 -1.859375 L 6.9375 -3.65625 L 8.453125 -3.65625 L 8.453125 0 L 0.515625 0 L 0.515625 -1.375 L 1.703125 -1.78125 L 1.703125 -9.328125 L 0.515625 -9.796875 L 0.515625 -11.125 L 5.359375 -11.203125 L 5.359375 -9.796875 Z M 4.15625 -9.328125 "/></g></g></g><g fill="#0b0b1b" fill-opacity="1"><g transform="translate(27.068407, 19.993983)"><g><path d="M 4.15625 -9.328125 L 4.15625 -4.296875 C 4.15625 -3.367188 4.304688 -2.710938 4.609375 -2.328125 C 4.921875 -1.941406 5.460938 -1.75 6.234375 -1.75 C 7.035156 -1.75 7.570312 -1.960938 7.84375 -2.390625 C 8.125 -2.816406 8.265625 -3.53125 8.265625 -4.53125 L 8.265625 -9.328125 L 7.03125 -9.796875 L 7.03125 -11.125 L 11.921875 -11.203125 L 11.921875 -9.796875 L 10.71875 -9.328125 L 10.71875 -4.53125 C 10.71875 -2.9375 10.367188 -1.75 9.671875 -0.96875 C 8.972656 -0.195312 7.800781 0.1875 6.15625 0.1875 C 4.582031 0.1875 3.445312 -0.171875 2.75 -0.890625 C 2.050781 -1.609375 1.703125 -2.742188 1.703125 -4.296875 L 1.703125 -9.328125 L 0.515625 -9.796875 L 0.515625 -11.125 L 5.40625 -11.203125 L 5.40625 -9.796875 Z M 4.15625 -9.328125 "/></g></g></g><g fill="#0b0b1b" fill-opacity="1"><g transform="translate(39.492885, 19.993983)"><g><path d="M 4.53125 -9.328125 L 4.53125 -6.671875 L 7.734375 -6.671875 L 7.734375 -4.921875 L 4.53125 -4.921875 L 4.53125 -1.859375 L 7.34375 -1.859375 L 7.703125 -3.171875 L 9.171875 -3.171875 L 9.171875 0 L 0.875 0 L 0.875 -1.375 L 2.0625 -1.78125 L 2.0625 -9.328125 L 0.875 -9.796875 L 0.875 -11.125 L 4.53125 -11.203125 L 8.984375 -11.203125 L 8.984375 -8.140625 L 7.5 -8.140625 L 7.109375 -9.328125 Z M 4.53125 -9.328125 "/></g></g></g><g fill="#0b0b1b" fill-opacity="1"><g transform="translate(49.454708, 19.993983)"><g/></g></g><g fill="#0b0b1b" fill-opacity="1"><g transform="translate(53.188407, 19.993983)"><g><path d="M 5.515625 -1.375 L 5.515625 0 L 0.640625 0 L 0.640625 -1.375 L 1.828125 -1.78125 L 1.828125 -9.328125 L 0.640625 -9.796875 L 0.640625 -11.125 L 5.515625 -11.203125 L 5.515625 -9.796875 L 4.296875 -9.328125 L 4.296875 -6.59375 L 5.375 -6.59375 L 8.03125 -11.125 L 10.921875 -11.203125 L 10.921875 -9.796875 L 9.5 -9.359375 L 7.40625 -5.890625 L 10.375 -1.78125 L 11.546875 -1.375 L 11.546875 0 L 6.671875 0 L 6.671875 -1.375 L 7.59375 -1.765625 L 5.453125 -4.84375 L 4.296875 -4.84375 L 4.296875 -1.78125 Z M 5.515625 -1.375 "/></g></g></g><g fill="#0b0b1b" fill-opacity="1"><g transform="translate(64.866146, 19.993983)"><g><path d="M 5.40625 -1.375 L 5.40625 0 L 0.5625 0 L 0.5625 -1.375 L 1.75 -1.78125 L 1.75 -9.328125 L 0.5625 -9.796875 L 0.5625 -11.125 L 5.40625 -11.203125 L 5.40625 -9.796875 L 4.21875 -9.328125 L 4.21875 -1.78125 Z M 5.40625 -1.375 "/></g></g></g><g fill="#0b0b1b" fill-opacity="1"><g transform="translate(70.824173, 19.993983)"><g><path d="M 5.171875 -1.375 L 5.171875 0 L 0.5625 0 L 0.5625 -1.375 L 1.75 -1.78125 L 1.75 -9.328125 L 0.5625 -9.796875 L 0.5625 -11.125 L 4.375 -11.203125 L 8.65625 -3.859375 L 8.65625 -9.328125 L 7.5 -9.796875 L 7.5 -11.125 L 12.03125 -11.203125 L 12.03125 -9.796875 L 10.84375 -9.328125 L 10.84375 0 L 8.1875 0 L 3.921875 -7.203125 L 3.921875 -1.78125 Z M 5.171875 -1.375 "/></g></g></g><g fill="#0b0b1b" fill-opacity="1"><g transform="translate(83.296312, 19.993983)"><g><path d="M 8.375 -7.78125 L 7.984375 -9.15625 C 7.484375 -9.320312 6.882812 -9.40625 6.1875 -9.40625 C 4.414062 -9.40625 3.53125 -8.109375 3.53125 -5.515625 C 3.53125 -3.054688 4.429688 -1.828125 6.234375 -1.828125 C 6.472656 -1.828125 6.738281 -1.847656 7.03125 -1.890625 C 7.320312 -1.941406 7.550781 -1.988281 7.71875 -2.03125 L 7.984375 -2.109375 L 7.984375 -4.109375 L 6.78125 -4.484375 L 6.78125 -5.78125 L 11.359375 -5.859375 L 11.359375 -4.484375 L 10.28125 -4.109375 L 10.28125 -0.875 C 10.15625 -0.789062 9.976562 -0.6875 9.75 -0.5625 C 9.519531 -0.445312 9.03125 -0.289062 8.28125 -0.09375 C 7.53125 0.09375 6.753906 0.1875 5.953125 0.1875 C 4.335938 0.1875 3.085938 -0.289062 2.203125 -1.25 C 1.316406 -2.207031 0.875 -3.601562 0.875 -5.4375 C 0.875 -7.289062 1.351562 -8.742188 2.3125 -9.796875 C 3.28125 -10.859375 4.585938 -11.390625 6.234375 -11.390625 C 6.804688 -11.390625 7.398438 -11.328125 8.015625 -11.203125 C 8.628906 -11.085938 9.101562 -10.96875 9.4375 -10.84375 L 9.9375 -10.640625 L 9.859375 -7.78125 Z M 8.375 -7.78125 "/></g></g></g><g fill="#0b0b1b" fill-opacity="1"><g transform="translate(95.212366, 19.993983)"><g/></g></g><g fill="#0b0b1b" fill-opacity="1"><g transform="translate(98.946065, 19.993983)"><g><path d="M 5.828125 -1.375 L 5.828125 0 L 0.71875 0 L 0.71875 -1.375 C 0.976562 -1.476562 1.375 -1.613281 1.90625 -1.78125 L 1.90625 -9.328125 L 0.71875 -9.796875 L 0.71875 -11.125 L 4.375 -11.203125 L 8.8125 -11.203125 L 8.8125 -8.1875 L 7.34375 -8.1875 L 6.9375 -9.328125 L 4.375 -9.328125 L 4.375 -6.515625 L 7.65625 -6.515625 L 7.65625 -4.765625 L 4.375 -4.765625 L 4.375 -1.78125 C 5.195312 -1.5625 5.679688 -1.425781 5.828125 -1.375 Z M 5.828125 -1.375 "/></g></g></g><g fill="#0b0b1b" fill-opacity="1"><g transform="translate(108.161148, 19.993983)"><g><path d="M 7.390625 -11.203125 L 10.8125 -1.75 L 11.921875 -1.375 L 11.921875 0 L 6.859375 0 L 6.859375 -1.375 L 8.0625 -1.75 L 7.671875 -2.9375 L 4.140625 -2.9375 L 3.75 -1.765625 L 4.984375 -1.375 L 4.984375 0 L 0.1875 0 L 0.1875 -1.375 L 1.34375 -1.75 L 4.84375 -11.15625 Z M 5.953125 -8.40625 L 4.703125 -4.640625 L 7.15625 -4.640625 Z M 5.953125 -8.40625 "/></g></g></g><g fill="#0b0b1b" fill-opacity="1"><g transform="translate(120.267857, 19.993983)"><g><path d="M 2.578125 -3.453125 L 2.8125 -2.109375 C 3.238281 -1.890625 3.757812 -1.78125 4.375 -1.78125 C 4.914062 -1.78125 5.367188 -1.894531 5.734375 -2.125 C 6.109375 -2.351562 6.296875 -2.664062 6.296875 -3.0625 C 6.296875 -3.351562 6.160156 -3.601562 5.890625 -3.8125 C 5.628906 -4.019531 5.300781 -4.179688 4.90625 -4.296875 C 4.507812 -4.421875 4.078125 -4.578125 3.609375 -4.765625 C 3.140625 -4.960938 2.707031 -5.175781 2.3125 -5.40625 C 1.914062 -5.632812 1.582031 -5.972656 1.3125 -6.421875 C 1.050781 -6.878906 0.921875 -7.414062 0.921875 -8.03125 C 0.921875 -9.09375 1.289062 -9.914062 2.03125 -10.5 C 2.78125 -11.09375 3.753906 -11.390625 4.953125 -11.390625 C 5.484375 -11.390625 6.039062 -11.335938 6.625 -11.234375 C 7.207031 -11.128906 7.660156 -11.023438 7.984375 -10.921875 L 8.453125 -10.765625 L 8.375 -7.859375 L 6.90625 -7.859375 L 6.515625 -9.21875 C 6.035156 -9.375 5.566406 -9.453125 5.109375 -9.453125 C 4.578125 -9.453125 4.164062 -9.34375 3.875 -9.125 C 3.582031 -8.914062 3.4375 -8.648438 3.4375 -8.328125 C 3.4375 -8.035156 3.566406 -7.785156 3.828125 -7.578125 C 4.097656 -7.367188 4.429688 -7.203125 4.828125 -7.078125 C 5.222656 -6.953125 5.648438 -6.796875 6.109375 -6.609375 C 6.566406 -6.421875 6.992188 -6.210938 7.390625 -5.984375 C 7.796875 -5.765625 8.128906 -5.4375 8.390625 -5 C 8.648438 -4.570312 8.78125 -4.066406 8.78125 -3.484375 C 8.78125 -2.328125 8.378906 -1.421875 7.578125 -0.765625 C 6.785156 -0.117188 5.757812 0.203125 4.5 0.203125 C 3.96875 0.203125 3.40625 0.148438 2.8125 0.046875 C 2.21875 -0.046875 1.757812 -0.144531 1.4375 -0.25 L 0.953125 -0.390625 L 0.953125 -3.453125 Z M 2.578125 -3.453125 "/></g></g></g><g fill="#0b0b1b" fill-opacity="1"><g transform="translate(129.86425, 19.993983)"><g><path d="M 5.4375 -1.375 L 5.4375 0 L 0.5625 0 L 0.5625 -1.375 L 1.75 -1.78125 L 1.75 -9.328125 L 0.5625 -9.796875 L 0.5625 -11.125 L 5.4375 -11.203125 L 5.4375 -9.796875 L 4.21875 -9.328125 L 4.21875 -6.703125 L 8.375 -6.703125 L 8.375 -9.328125 L 7.15625 -9.796875 L 7.15625 -11.125 L 12.03125 -11.203125 L 12.03125 -9.796875 L 10.84375 -9.328125 L 10.84375 -1.78125 L 12.03125 -1.375 L 12.03125 0 L 7.15625 0 L 7.15625 -1.375 L 8.375 -1.78125 L 8.375 -4.84375 L 4.21875 -4.84375 L 4.21875 -1.78125 Z M 5.4375 -1.375 "/></g></g></g><g fill="#0b0b1b" fill-opacity="1"><g transform="translate(142.447602, 19.993983)"><g><path d="M 5.40625 -1.375 L 5.40625 0 L 0.5625 0 L 0.5625 -1.375 L 1.75 -1.78125 L 1.75 -9.328125 L 0.5625 -9.796875 L 0.5625 -11.125 L 5.40625 -11.203125 L 5.40625 -9.796875 L 4.21875 -9.328125 L 4.21875 -1.78125 Z M 5.40625 -1.375 "/></g></g></g><g fill="#0b0b1b" fill-opacity="1"><g transform="translate(148.405629, 19.993983)"><g><path d="M 6.125 -11.390625 C 7.707031 -11.390625 8.9375 -10.894531 9.8125 -9.90625 C 10.6875 -8.914062 11.125 -7.53125 11.125 -5.75 C 11.125 -3.957031 10.632812 -2.515625 9.65625 -1.421875 C 8.675781 -0.335938 7.390625 0.203125 5.796875 0.203125 C 4.210938 0.203125 2.992188 -0.28125 2.140625 -1.25 C 1.296875 -2.226562 0.875 -3.648438 0.875 -5.515625 C 0.875 -7.335938 1.34375 -8.769531 2.28125 -9.8125 C 3.21875 -10.863281 4.5 -11.390625 6.125 -11.390625 Z M 6.03125 -9.40625 C 5.207031 -9.40625 4.582031 -9.109375 4.15625 -8.515625 C 3.738281 -7.929688 3.53125 -6.957031 3.53125 -5.59375 C 3.53125 -4.289062 3.722656 -3.328125 4.109375 -2.703125 C 4.492188 -2.085938 5.082031 -1.78125 5.875 -1.78125 C 6.71875 -1.78125 7.359375 -2.082031 7.796875 -2.6875 C 8.234375 -3.300781 8.453125 -4.296875 8.453125 -5.671875 C 8.453125 -6.960938 8.25 -7.90625 7.84375 -8.5 C 7.445312 -9.101562 6.84375 -9.40625 6.03125 -9.40625 Z M 6.03125 -9.40625 "/></g></g></g><g fill="#0b0b1b" fill-opacity="1"><g transform="translate(160.401126, 19.993983)"><g><path d="M 5.171875 -1.375 L 5.171875 0 L 0.5625 0 L 0.5625 -1.375 L 1.75 -1.78125 L 1.75 -9.328125 L 0.5625 -9.796875 L 0.5625 -11.125 L 4.375 -11.203125 L 8.65625 -3.859375 L 8.65625 -9.328125 L 7.5 -9.796875 L 7.5 -11.125 L 12.03125 -11.203125 L 12.03125 -9.796875 L 10.84375 -9.328125 L 10.84375 0 L 8.1875 0 L 3.921875 -7.203125 L 3.921875 -1.78125 Z M 5.171875 -1.375 "/></g></g></g><g fill="#0b0b1b" fill-opacity="1"><g transform="translate(12.721779, 31.515585)"><g><path d="M 3.59375 0 L 3.140625 -1.46875 C 3.023438 -1.851562 2.894531 -2.109375 2.75 -2.234375 C 2.613281 -2.359375 2.40625 -2.421875 2.125 -2.421875 L 1.90625 -2.421875 L 1.625 -0.640625 L 2.3125 -0.484375 L 2.234375 0 L 0.046875 0 L 0.125 -0.484375 L 0.8125 -0.640625 L 1.5 -4.9375 L 0.859375 -5.09375 L 0.921875 -5.53125 L 2.40625 -5.5625 L 3.265625 -5.5625 C 3.691406 -5.5625 4.054688 -5.457031 4.359375 -5.25 C 4.660156 -5.050781 4.8125 -4.738281 4.8125 -4.3125 C 4.8125 -3.882812 4.679688 -3.519531 4.421875 -3.21875 C 4.171875 -2.914062 3.835938 -2.695312 3.421875 -2.5625 C 3.578125 -2.425781 3.734375 -2.128906 3.890625 -1.671875 L 4.234375 -0.640625 L 4.8125 -0.484375 L 4.734375 0 Z M 3.125 -4.9375 L 2.296875 -4.9375 L 2 -3.015625 L 2.578125 -3.015625 C 2.992188 -3.015625 3.332031 -3.117188 3.59375 -3.328125 C 3.851562 -3.546875 3.984375 -3.84375 3.984375 -4.21875 C 3.984375 -4.695312 3.695312 -4.9375 3.125 -4.9375 Z M 3.125 -4.9375 "/></g></g></g><g fill="#0b0b1b" fill-opacity="1"><g transform="translate(17.767475, 31.515585)"><g><path d="M 2.390625 0.078125 C 1.796875 0.078125 1.328125 -0.09375 0.984375 -0.4375 C 0.648438 -0.789062 0.484375 -1.265625 0.484375 -1.859375 C 0.484375 -2.972656 0.773438 -3.878906 1.359375 -4.578125 C 1.953125 -5.285156 2.695312 -5.640625 3.59375 -5.640625 C 4.226562 -5.640625 4.722656 -5.460938 5.078125 -5.109375 C 5.429688 -4.753906 5.609375 -4.285156 5.609375 -3.703125 C 5.609375 -2.554688 5.300781 -1.640625 4.6875 -0.953125 C 4.082031 -0.265625 3.316406 0.078125 2.390625 0.078125 Z M 4.734375 -3.59375 C 4.734375 -4.0625 4.617188 -4.40625 4.390625 -4.625 C 4.171875 -4.851562 3.859375 -4.96875 3.453125 -4.96875 C 2.835938 -4.96875 2.332031 -4.671875 1.9375 -4.078125 C 1.550781 -3.492188 1.359375 -2.78125 1.359375 -1.9375 C 1.359375 -1.5 1.460938 -1.164062 1.671875 -0.9375 C 1.890625 -0.707031 2.1875 -0.59375 2.5625 -0.59375 C 3.195312 -0.59375 3.71875 -0.878906 4.125 -1.453125 C 4.53125 -2.023438 4.734375 -2.738281 4.734375 -3.59375 Z M 4.734375 -3.59375 "/></g></g></g><g fill="#0b0b1b" fill-opacity="1"><g transform="translate(23.647499, 31.515585)"><g><path d="M 1.671875 -0.640625 L 1.890625 -2.078125 L 1.0625 -4.9375 L 0.3125 -5.09375 L 0.390625 -5.53125 L 1.703125 -5.5625 L 2.5 -2.65625 L 3.828125 -4.9375 L 3.234375 -5.09375 L 3.3125 -5.53125 L 5.359375 -5.5625 L 5.28125 -5.09375 L 4.625 -4.9375 L 2.65625 -1.84375 L 2.46875 -0.640625 L 3.125 -0.484375 L 3.046875 0 L 0.875 0 L 0.953125 -0.484375 Z M 1.671875 -0.640625 "/></g></g></g><g fill="#0b0b1b" fill-opacity="1"><g transform="translate(28.486593, 31.515585)"><g><path d="M 3.828125 -0.640625 L 3.671875 -1.515625 L 1.640625 -1.515625 L 1.203125 -0.625 L 1.875 -0.484375 L 1.796875 0 L -0.3125 0 L -0.25 -0.484375 L 0.421875 -0.640625 L 2.96875 -5.53125 L 3.765625 -5.5625 L 4.71875 -0.609375 L 5.25 -0.484375 L 5.171875 0 L 3.0625 0 L 3.140625 -0.484375 Z M 3.15625 -4.546875 L 1.953125 -2.140625 L 3.5625 -2.140625 Z M 3.15625 -4.546875 "/></g></g></g><g fill="#0b0b1b" fill-opacity="1"><g transform="translate(34.096452, 31.515585)"><g><path d="M 3.890625 0 L 0.078125 0 L 0.15625 -0.484375 L 0.859375 -0.640625 L 1.546875 -4.9375 L 0.890625 -5.09375 L 0.953125 -5.53125 L 3.171875 -5.5625 L 3.09375 -5.09375 L 2.34375 -4.9375 L 1.65625 -0.640625 L 3.296875 -0.640625 L 3.609375 -1.546875 L 4.15625 -1.546875 Z M 3.890625 0 "/></g></g></g><g fill="#0b0b1b" fill-opacity="1"><g transform="translate(38.363441, 31.515585)"><g><path d="M 3.890625 0 L 0.078125 0 L 0.15625 -0.484375 L 0.859375 -0.640625 L 1.546875 -4.9375 L 0.890625 -5.09375 L 0.953125 -5.53125 L 3.171875 -5.5625 L 3.09375 -5.09375 L 2.34375 -4.9375 L 1.65625 -0.640625 L 3.296875 -0.640625 L 3.609375 -1.546875 L 4.15625 -1.546875 Z M 3.890625 0 "/></g></g></g><g fill="#0b0b1b" fill-opacity="1"><g transform="translate(42.63043, 31.515585)"><g><path d="M 1.671875 -0.640625 L 1.890625 -2.078125 L 1.0625 -4.9375 L 0.3125 -5.09375 L 0.390625 -5.53125 L 1.703125 -5.5625 L 2.5 -2.65625 L 3.828125 -4.9375 L 3.234375 -5.09375 L 3.3125 -5.53125 L 5.359375 -5.5625 L 5.28125 -5.09375 L 4.625 -4.9375 L 2.65625 -1.84375 L 2.46875 -0.640625 L 3.125 -0.484375 L 3.046875 0 L 0.875 0 L 0.953125 -0.484375 Z M 1.671875 -0.640625 "/></g></g></g><g fill="#0b0b1b" fill-opacity="1"><g transform="translate(47.469524, 31.515585)"><g/></g></g><g fill="#0b0b1b" fill-opacity="1"><g transform="translate(49.853314, 31.515585)"><g><path d="M 5.265625 -5.25 L 5.0625 -3.890625 L 4.59375 -3.890625 L 4.5 -4.765625 C 4.175781 -4.898438 3.816406 -4.96875 3.421875 -4.96875 C 3.023438 -4.96875 2.664062 -4.828125 2.34375 -4.546875 C 2.019531 -4.273438 1.773438 -3.921875 1.609375 -3.484375 C 1.441406 -3.054688 1.359375 -2.609375 1.359375 -2.140625 C 1.359375 -1.671875 1.472656 -1.300781 1.703125 -1.03125 C 1.929688 -0.757812 2.234375 -0.625 2.609375 -0.625 C 3.222656 -0.625 3.8125 -0.828125 4.375 -1.234375 L 4.65625 -0.765625 C 3.957031 -0.203125 3.222656 0.078125 2.453125 0.078125 C 1.835938 0.078125 1.351562 -0.101562 1 -0.46875 C 0.65625 -0.832031 0.484375 -1.320312 0.484375 -1.9375 C 0.484375 -3.019531 0.773438 -3.90625 1.359375 -4.59375 C 1.953125 -5.289062 2.695312 -5.640625 3.59375 -5.640625 C 3.851562 -5.640625 4.117188 -5.609375 4.390625 -5.546875 C 4.671875 -5.484375 4.890625 -5.414062 5.046875 -5.34375 Z M 5.265625 -5.25 "/></g></g></g><g fill="#0b0b1b" fill-opacity="1"><g transform="translate(54.922845, 31.515585)"><g><path d="M 3.59375 0 L 3.140625 -1.46875 C 3.023438 -1.851562 2.894531 -2.109375 2.75 -2.234375 C 2.613281 -2.359375 2.40625 -2.421875 2.125 -2.421875 L 1.90625 -2.421875 L 1.625 -0.640625 L 2.3125 -0.484375 L 2.234375 0 L 0.046875 0 L 0.125 -0.484375 L 0.8125 -0.640625 L 1.5 -4.9375 L 0.859375 -5.09375 L 0.921875 -5.53125 L 2.40625 -5.5625 L 3.265625 -5.5625 C 3.691406 -5.5625 4.054688 -5.457031 4.359375 -5.25 C 4.660156 -5.050781 4.8125 -4.738281 4.8125 -4.3125 C 4.8125 -3.882812 4.679688 -3.519531 4.421875 -3.21875 C 4.171875 -2.914062 3.835938 -2.695312 3.421875 -2.5625 C 3.578125 -2.425781 3.734375 -2.128906 3.890625 -1.671875 L 4.234375 -0.640625 L 4.8125 -0.484375 L 4.734375 0 Z M 3.125 -4.9375 L 2.296875 -4.9375 L 2 -3.015625 L 2.578125 -3.015625 C 2.992188 -3.015625 3.332031 -3.117188 3.59375 -3.328125 C 3.851562 -3.546875 3.984375 -3.84375 3.984375 -4.21875 C 3.984375 -4.695312 3.695312 -4.9375 3.125 -4.9375 Z M 3.125 -4.9375 "/></g></g></g><g fill="#0b0b1b" fill-opacity="1"><g transform="translate(59.96854, 31.515585)"><g><path d="M 3.828125 -0.640625 L 3.671875 -1.515625 L 1.640625 -1.515625 L 1.203125 -0.625 L 1.875 -0.484375 L 1.796875 0 L -0.3125 0 L -0.25 -0.484375 L 0.421875 -0.640625 L 2.96875 -5.53125 L 3.765625 -5.5625 L 4.71875 -0.609375 L 5.25 -0.484375 L 5.171875 0 L 3.0625 0 L 3.140625 -0.484375 Z M 3.15625 -4.546875 L 1.953125 -2.140625 L 3.5625 -2.140625 Z M 3.15625 -4.546875 "/></g></g></g><g fill="#0b0b1b" fill-opacity="1"><g transform="translate(65.5784, 31.515585)"><g><path d="M 2.296875 -4.9375 L 2 -3.140625 L 3.828125 -3.140625 L 3.734375 -2.5 L 1.921875 -2.5 L 1.609375 -0.640625 L 2.390625 -0.484375 L 2.3125 0 L 0.046875 0 L 0.125 -0.484375 L 0.8125 -0.640625 L 1.515625 -4.9375 L 0.84375 -5.09375 L 0.921875 -5.53125 L 2.40625 -5.5625 L 4.796875 -5.5625 L 4.578125 -4.21875 L 4.140625 -4.21875 L 4.0625 -4.9375 Z M 2.296875 -4.9375 "/></g></g></g><g fill="#0b0b1b" fill-opacity="1"><g transform="translate(69.932796, 31.515585)"><g><path d="M 0.515625 -5.5625 L 4.796875 -5.5625 L 4.5625 -4.140625 L 4.0625 -4.140625 L 3.984375 -4.9375 L 2.953125 -4.9375 L 2.265625 -0.640625 L 3.03125 -0.484375 L 2.953125 0 L 0.578125 0 L 0.65625 -0.484375 L 1.46875 -0.640625 L 2.15625 -4.9375 L 1.125 -4.9375 L 0.796875 -4.140625 L 0.28125 -4.140625 Z M 0.515625 -5.5625 "/></g></g></g><g fill="#0b0b1b" fill-opacity="1"><g transform="translate(74.207727, 31.515585)"><g><path d="M 0.8125 -0.640625 L 1.5 -4.9375 L 0.84375 -5.09375 L 0.921875 -5.53125 L 2.40625 -5.5625 L 4.796875 -5.5625 L 4.578125 -4.21875 L 4.140625 -4.21875 L 4.0625 -4.9375 L 2.296875 -4.9375 L 2.015625 -3.21875 L 3.828125 -3.21875 L 3.734375 -2.578125 L 1.921875 -2.578125 L 1.609375 -0.640625 L 3.421875 -0.640625 L 3.71875 -1.453125 L 4.234375 -1.453125 L 4 0 L 0.046875 0 L 0.125 -0.484375 Z M 0.8125 -0.640625 "/></g></g></g><g fill="#0b0b1b" fill-opacity="1"><g transform="translate(78.800501, 31.515585)"><g><path d="M 0.796875 -0.625 L 1.5 -4.9375 L 0.84375 -5.09375 L 0.921875 -5.53125 L 2.390625 -5.5625 L 3.421875 -5.5625 C 4.015625 -5.5625 4.488281 -5.394531 4.84375 -5.0625 C 5.207031 -4.726562 5.390625 -4.273438 5.390625 -3.703125 C 5.390625 -2.523438 5.097656 -1.613281 4.515625 -0.96875 C 3.941406 -0.320312 3.148438 0 2.140625 0 L 0.046875 0 L 0.125 -0.484375 Z M 2.296875 -4.9375 L 1.609375 -0.640625 L 2.265625 -0.640625 C 2.984375 -0.640625 3.546875 -0.910156 3.953125 -1.453125 C 4.359375 -1.992188 4.5625 -2.707031 4.5625 -3.59375 C 4.5625 -4.019531 4.453125 -4.347656 4.234375 -4.578125 C 4.023438 -4.816406 3.710938 -4.9375 3.296875 -4.9375 Z M 2.296875 -4.9375 "/></g></g></g><g fill="#0b0b1b" fill-opacity="1"><g transform="translate(84.545438, 31.515585)"><g><path d="M 0.328125 -0.40625 C 0.328125 -0.570312 0.378906 -0.71875 0.484375 -0.84375 C 0.597656 -0.96875 0.742188 -1.03125 0.921875 -1.03125 C 1.210938 -1.03125 1.359375 -0.882812 1.359375 -0.59375 C 1.359375 -0.3125 1.21875 0.0078125 0.9375 0.375 C 0.707031 0.675781 0.492188 0.921875 0.296875 1.109375 L 0.1875 1.21875 L -0.125 0.921875 C 0.25 0.492188 0.4375 0.207031 0.4375 0.0625 C 0.4375 0.0078125 0.414062 -0.0625 0.375 -0.15625 C 0.34375 -0.25 0.328125 -0.332031 0.328125 -0.40625 Z M 0.328125 -0.40625 "/></g></g></g><g fill="#0b0b1b" fill-opacity="1"><g transform="translate(86.373016, 31.515585)"><g/></g></g><g fill="#0b0b1b" fill-opacity="1"><g transform="translate(88.756806, 31.515585)"><g><path d="M 3.828125 -0.640625 L 3.671875 -1.515625 L 1.640625 -1.515625 L 1.203125 -0.625 L 1.875 -0.484375 L 1.796875 0 L -0.3125 0 L -0.25 -0.484375 L 0.421875 -0.640625 L 2.96875 -5.53125 L 3.765625 -5.5625 L 4.71875 -0.609375 L 5.25 -0.484375 L 5.171875 0 L 3.0625 0 L 3.140625 -0.484375 Z M 3.15625 -4.546875 L 1.953125 -2.140625 L 3.5625 -2.140625 Z M 3.15625 -4.546875 "/></g></g></g><g fill="#0b0b1b" fill-opacity="1"><g transform="translate(94.366665, 31.515585)"><g><path d="M 2.296875 -4.9375 L 2 -3.140625 L 3.828125 -3.140625 L 3.734375 -2.5 L 1.921875 -2.5 L 1.609375 -0.640625 L 2.390625 -0.484375 L 2.3125 0 L 0.046875 0 L 0.125 -0.484375 L 0.8125 -0.640625 L 1.515625 -4.9375 L 0.84375 -5.09375 L 0.921875 -5.53125 L 2.40625 -5.5625 L 4.796875 -5.5625 L 4.578125 -4.21875 L 4.140625 -4.21875 L 4.0625 -4.9375 Z M 2.296875 -4.9375 "/></g></g></g><g fill="#0b0b1b" fill-opacity="1"><g transform="translate(98.721061, 31.515585)"><g><path d="M 2.296875 -4.9375 L 2 -3.140625 L 3.828125 -3.140625 L 3.734375 -2.5 L 1.921875 -2.5 L 1.609375 -0.640625 L 2.390625 -0.484375 L 2.3125 0 L 0.046875 0 L 0.125 -0.484375 L 0.8125 -0.640625 L 1.515625 -4.9375 L 0.84375 -5.09375 L 0.921875 -5.53125 L 2.40625 -5.5625 L 4.796875 -5.5625 L 4.578125 -4.21875 L 4.140625 -4.21875 L 4.0625 -4.9375 Z M 2.296875 -4.9375 "/></g></g></g><g fill="#0b0b1b" fill-opacity="1"><g transform="translate(103.075458, 31.515585)"><g><path d="M 2.390625 0.078125 C 1.796875 0.078125 1.328125 -0.09375 0.984375 -0.4375 C 0.648438 -0.789062 0.484375 -1.265625 0.484375 -1.859375 C 0.484375 -2.972656 0.773438 -3.878906 1.359375 -4.578125 C 1.953125 -5.285156 2.695312 -5.640625 3.59375 -5.640625 C 4.226562 -5.640625 4.722656 -5.460938 5.078125 -5.109375 C 5.429688 -4.753906 5.609375 -4.285156 5.609375 -3.703125 C 5.609375 -2.554688 5.300781 -1.640625 4.6875 -0.953125 C 4.082031 -0.265625 3.316406 0.078125 2.390625 0.078125 Z M 4.734375 -3.59375 C 4.734375 -4.0625 4.617188 -4.40625 4.390625 -4.625 C 4.171875 -4.851562 3.859375 -4.96875 3.453125 -4.96875 C 2.835938 -4.96875 2.332031 -4.671875 1.9375 -4.078125 C 1.550781 -3.492188 1.359375 -2.78125 1.359375 -1.9375 C 1.359375 -1.5 1.460938 -1.164062 1.671875 -0.9375 C 1.890625 -0.707031 2.1875 -0.59375 2.5625 -0.59375 C 3.195312 -0.59375 3.71875 -0.878906 4.125 -1.453125 C 4.53125 -2.023438 4.734375 -2.738281 4.734375 -3.59375 Z M 4.734375 -3.59375 "/></g></g></g><g fill="#0b0b1b" fill-opacity="1"><g transform="translate(108.955482, 31.515585)"><g><path d="M 3.59375 0 L 3.140625 -1.46875 C 3.023438 -1.851562 2.894531 -2.109375 2.75 -2.234375 C 2.613281 -2.359375 2.40625 -2.421875 2.125 -2.421875 L 1.90625 -2.421875 L 1.625 -0.640625 L 2.3125 -0.484375 L 2.234375 0 L 0.046875 0 L 0.125 -0.484375 L 0.8125 -0.640625 L 1.5 -4.9375 L 0.859375 -5.09375 L 0.921875 -5.53125 L 2.40625 -5.5625 L 3.265625 -5.5625 C 3.691406 -5.5625 4.054688 -5.457031 4.359375 -5.25 C 4.660156 -5.050781 4.8125 -4.738281 4.8125 -4.3125 C 4.8125 -3.882812 4.679688 -3.519531 4.421875 -3.21875 C 4.171875 -2.914062 3.835938 -2.695312 3.421875 -2.5625 C 3.578125 -2.425781 3.734375 -2.128906 3.890625 -1.671875 L 4.234375 -0.640625 L 4.8125 -0.484375 L 4.734375 0 Z M 3.125 -4.9375 L 2.296875 -4.9375 L 2 -3.015625 L 2.578125 -3.015625 C 2.992188 -3.015625 3.332031 -3.117188 3.59375 -3.328125 C 3.851562 -3.546875 3.984375 -3.84375 3.984375 -4.21875 C 3.984375 -4.695312 3.695312 -4.9375 3.125 -4.9375 Z M 3.125 -4.9375 "/></g></g></g><g fill="#0b0b1b" fill-opacity="1"><g transform="translate(114.001178, 31.515585)"><g><path d="M 0.796875 -0.625 L 1.5 -4.9375 L 0.84375 -5.09375 L 0.921875 -5.53125 L 2.390625 -5.5625 L 3.421875 -5.5625 C 4.015625 -5.5625 4.488281 -5.394531 4.84375 -5.0625 C 5.207031 -4.726562 5.390625 -4.273438 5.390625 -3.703125 C 5.390625 -2.523438 5.097656 -1.613281 4.515625 -0.96875 C 3.941406 -0.320312 3.148438 0 2.140625 0 L 0.046875 0 L 0.125 -0.484375 Z M 2.296875 -4.9375 L 1.609375 -0.640625 L 2.265625 -0.640625 C 2.984375 -0.640625 3.546875 -0.910156 3.953125 -1.453125 C 4.359375 -1.992188 4.5625 -2.707031 4.5625 -3.59375 C 4.5625 -4.019531 4.453125 -4.347656 4.234375 -4.578125 C 4.023438 -4.816406 3.710938 -4.9375 3.296875 -4.9375 Z M 2.296875 -4.9375 "/></g></g></g><g fill="#0b0b1b" fill-opacity="1"><g transform="translate(119.746114, 31.515585)"><g><path d="M 3.828125 -0.640625 L 3.671875 -1.515625 L 1.640625 -1.515625 L 1.203125 -0.625 L 1.875 -0.484375 L 1.796875 0 L -0.3125 0 L -0.25 -0.484375 L 0.421875 -0.640625 L 2.96875 -5.53125 L 3.765625 -5.5625 L 4.71875 -0.609375 L 5.25 -0.484375 L 5.171875 0 L 3.0625 0 L 3.140625 -0.484375 Z M 3.15625 -4.546875 L 1.953125 -2.140625 L 3.5625 -2.140625 Z M 3.15625 -4.546875 "/></g></g></g><g fill="#0b0b1b" fill-opacity="1"><g transform="translate(125.355973, 31.515585)"><g><path d="M 0.828125 -0.640625 L 1.5 -4.9375 L 0.859375 -5.09375 L 0.9375 -5.53125 L 2.40625 -5.5625 L 3.234375 -5.5625 C 3.671875 -5.5625 4.035156 -5.457031 4.328125 -5.25 C 4.628906 -5.050781 4.78125 -4.75 4.78125 -4.34375 C 4.78125 -3.9375 4.65625 -3.609375 4.40625 -3.359375 C 4.15625 -3.117188 3.867188 -2.960938 3.546875 -2.890625 C 4.242188 -2.722656 4.59375 -2.359375 4.59375 -1.796875 C 4.59375 -1.234375 4.390625 -0.789062 3.984375 -0.46875 C 3.585938 -0.15625 3.070312 0 2.4375 0 L 0.046875 0 L 0.125 -0.484375 Z M 1.625 -0.640625 L 2.359375 -0.640625 C 2.796875 -0.640625 3.132812 -0.742188 3.375 -0.953125 C 3.613281 -1.160156 3.734375 -1.421875 3.734375 -1.734375 C 3.734375 -2.046875 3.632812 -2.265625 3.4375 -2.390625 C 3.238281 -2.515625 2.929688 -2.578125 2.515625 -2.578125 L 1.921875 -2.578125 Z M 3.15625 -4.9375 L 2.296875 -4.9375 L 2.015625 -3.1875 L 2.59375 -3.1875 C 2.882812 -3.1875 3.171875 -3.253906 3.453125 -3.390625 C 3.597656 -3.460938 3.710938 -3.570312 3.796875 -3.71875 C 3.890625 -3.875 3.9375 -4.054688 3.9375 -4.265625 C 3.9375 -4.472656 3.863281 -4.632812 3.71875 -4.75 C 3.570312 -4.875 3.382812 -4.9375 3.15625 -4.9375 Z M 3.15625 -4.9375 "/></g></g></g><g fill="#0b0b1b" fill-opacity="1"><g transform="translate(130.409611, 31.515585)"><g><path d="M 3.890625 0 L 0.078125 0 L 0.15625 -0.484375 L 0.859375 -0.640625 L 1.546875 -4.9375 L 0.890625 -5.09375 L 0.953125 -5.53125 L 3.171875 -5.5625 L 3.09375 -5.09375 L 2.34375 -4.9375 L 1.65625 -0.640625 L 3.296875 -0.640625 L 3.609375 -1.546875 L 4.15625 -1.546875 Z M 3.890625 0 "/></g></g></g><g fill="#0b0b1b" fill-opacity="1"><g transform="translate(134.6766, 31.515585)"><g><path d="M 1.671875 -0.640625 L 1.890625 -2.078125 L 1.0625 -4.9375 L 0.3125 -5.09375 L 0.390625 -5.53125 L 1.703125 -5.5625 L 2.5 -2.65625 L 3.828125 -4.9375 L 3.234375 -5.09375 L 3.3125 -5.53125 L 5.359375 -5.5625 L 5.28125 -5.09375 L 4.625 -4.9375 L 2.65625 -1.84375 L 2.46875 -0.640625 L 3.125 -0.484375 L 3.046875 0 L 0.875 0 L 0.953125 -0.484375 Z M 1.671875 -0.640625 "/></g></g></g><g fill="#0b0b1b" fill-opacity="1"><g transform="translate(139.515694, 31.515585)"><g/></g></g><g fill="#0b0b1b" fill-opacity="1"><g transform="translate(141.899484, 31.515585)"><g><path d="M 1.671875 -0.640625 L 1.890625 -2.078125 L 1.0625 -4.9375 L 0.3125 -5.09375 L 0.390625 -5.53125 L 1.703125 -5.5625 L 2.5 -2.65625 L 3.828125 -4.9375 L 3.234375 -5.09375 L 3.3125 -5.53125 L 5.359375 -5.5625 L 5.28125 -5.09375 L 4.625 -4.9375 L 2.65625 -1.84375 L 2.46875 -0.640625 L 3.125 -0.484375 L 3.046875 0 L 0.875 0 L 0.953125 -0.484375 Z M 1.671875 -0.640625 "/></g></g></g><g fill="#0b0b1b" fill-opacity="1"><g transform="translate(146.738578, 31.515585)"><g><path d="M 2.390625 0.078125 C 1.796875 0.078125 1.328125 -0.09375 0.984375 -0.4375 C 0.648438 -0.789062 0.484375 -1.265625 0.484375 -1.859375 C 0.484375 -2.972656 0.773438 -3.878906 1.359375 -4.578125 C 1.953125 -5.285156 2.695312 -5.640625 3.59375 -5.640625 C 4.226562 -5.640625 4.722656 -5.460938 5.078125 -5.109375 C 5.429688 -4.753906 5.609375 -4.285156 5.609375 -3.703125 C 5.609375 -2.554688 5.300781 -1.640625 4.6875 -0.953125 C 4.082031 -0.265625 3.316406 0.078125 2.390625 0.078125 Z M 4.734375 -3.59375 C 4.734375 -4.0625 4.617188 -4.40625 4.390625 -4.625 C 4.171875 -4.851562 3.859375 -4.96875 3.453125 -4.96875 C 2.835938 -4.96875 2.332031 -4.671875 1.9375 -4.078125 C 1.550781 -3.492188 1.359375 -2.78125 1.359375 -1.9375 C 1.359375 -1.5 1.460938 -1.164062 1.671875 -0.9375 C 1.890625 -0.707031 2.1875 -0.59375 2.5625 -0.59375 C 3.195312 -0.59375 3.71875 -0.878906 4.125 -1.453125 C 4.53125 -2.023438 4.734375 -2.738281 4.734375 -3.59375 Z M 4.734375 -3.59375 "/></g></g></g><g fill="#0b0b1b" fill-opacity="1"><g transform="translate(152.618601, 31.515585)"><g><path d="M 5.453125 -4.9375 L 5.046875 -2.34375 C 4.921875 -1.550781 4.660156 -0.945312 4.265625 -0.53125 C 3.878906 -0.125 3.296875 0.078125 2.515625 0.078125 C 1.890625 0.078125 1.441406 -0.0546875 1.171875 -0.328125 C 0.898438 -0.609375 0.765625 -1.003906 0.765625 -1.515625 C 0.765625 -1.671875 0.785156 -1.878906 0.828125 -2.140625 L 1.265625 -4.9375 L 0.59375 -5.09375 L 0.671875 -5.53125 L 2.84375 -5.5625 L 2.765625 -5.09375 L 2.078125 -4.9375 L 1.625 -2.140625 C 1.59375 -1.953125 1.578125 -1.769531 1.578125 -1.59375 C 1.578125 -1.269531 1.65625 -1.019531 1.8125 -0.84375 C 1.976562 -0.675781 2.28125 -0.59375 2.71875 -0.59375 C 3.15625 -0.59375 3.488281 -0.71875 3.71875 -0.96875 C 3.957031 -1.226562 4.125 -1.660156 4.21875 -2.265625 L 4.65625 -4.9375 L 3.9375 -5.09375 L 4.015625 -5.53125 L 6.203125 -5.5625 L 6.125 -5.09375 Z M 5.453125 -4.9375 "/></g></g></g><g fill="#0b0b1b" fill-opacity="1"><g transform="translate(158.458897, 31.515585)"><g><path d="M 3.59375 0 L 3.140625 -1.46875 C 3.023438 -1.851562 2.894531 -2.109375 2.75 -2.234375 C 2.613281 -2.359375 2.40625 -2.421875 2.125 -2.421875 L 1.90625 -2.421875 L 1.625 -0.640625 L 2.3125 -0.484375 L 2.234375 0 L 0.046875 0 L 0.125 -0.484375 L 0.8125 -0.640625 L 1.5 -4.9375 L 0.859375 -5.09375 L 0.921875 -5.53125 L 2.40625 -5.5625 L 3.265625 -5.5625 C 3.691406 -5.5625 4.054688 -5.457031 4.359375 -5.25 C 4.660156 -5.050781 4.8125 -4.738281 4.8125 -4.3125 C 4.8125 -3.882812 4.679688 -3.519531 4.421875 -3.21875 C 4.171875 -2.914062 3.835938 -2.695312 3.421875 -2.5625 C 3.578125 -2.425781 3.734375 -2.128906 3.890625 -1.671875 L 4.234375 -0.640625 L 4.8125 -0.484375 L 4.734375 0 Z M 3.125 -4.9375 L 2.296875 -4.9375 L 2 -3.015625 L 2.578125 -3.015625 C 2.992188 -3.015625 3.332031 -3.117188 3.59375 -3.328125 C 3.851562 -3.546875 3.984375 -3.84375 3.984375 -4.21875 C 3.984375 -4.695312 3.695312 -4.9375 3.125 -4.9375 Z M 3.125 -4.9375 "/></g></g></g><g fill="#0b0b1b" fill-opacity="1"><g transform="translate(163.504593, 31.515585)"><g><path d="M 1.0625 -1.625 L 1.09375 -0.765625 C 1.332031 -0.648438 1.609375 -0.59375 1.921875 -0.59375 C 2.242188 -0.59375 2.535156 -0.679688 2.796875 -0.859375 C 3.054688 -1.035156 3.1875 -1.269531 3.1875 -1.5625 C 3.1875 -1.820312 3.035156 -2.03125 2.734375 -2.1875 C 2.597656 -2.269531 2.453125 -2.34375 2.296875 -2.40625 C 2.140625 -2.46875 1.976562 -2.535156 1.8125 -2.609375 C 1.65625 -2.691406 1.515625 -2.785156 1.390625 -2.890625 C 1.085938 -3.117188 0.9375 -3.441406 0.9375 -3.859375 C 0.9375 -4.441406 1.140625 -4.882812 1.546875 -5.1875 C 1.953125 -5.488281 2.4375 -5.640625 3 -5.640625 C 3.207031 -5.640625 3.429688 -5.613281 3.671875 -5.5625 C 3.921875 -5.507812 4.113281 -5.457031 4.25 -5.40625 L 4.46875 -5.328125 L 4.21875 -3.984375 L 3.765625 -3.984375 L 3.65625 -4.828125 C 3.382812 -4.921875 3.101562 -4.96875 2.8125 -4.96875 C 2.53125 -4.96875 2.289062 -4.882812 2.09375 -4.71875 C 1.894531 -4.5625 1.796875 -4.375 1.796875 -4.15625 C 1.796875 -3.945312 1.867188 -3.773438 2.015625 -3.640625 C 2.171875 -3.515625 2.359375 -3.40625 2.578125 -3.3125 C 2.796875 -3.226562 3.015625 -3.132812 3.234375 -3.03125 C 3.460938 -2.9375 3.648438 -2.789062 3.796875 -2.59375 C 3.953125 -2.40625 4.03125 -2.175781 4.03125 -1.90625 C 4.03125 -1.476562 3.921875 -1.113281 3.703125 -0.8125 C 3.273438 -0.21875 2.644531 0.078125 1.8125 0.078125 C 1.570312 0.078125 1.328125 0.0507812 1.078125 0 C 0.835938 -0.0507812 0.648438 -0.101562 0.515625 -0.15625 L 0.3125 -0.234375 L 0.546875 -1.625 Z M 1.0625 -1.625 "/></g></g></g></svg>